<svg xmlns="http://www.w3.org/2000/svg" viewBox="0 0 400 55" preserveAspectRatio="none">
  <!--
    Brush stroke mask for CSS mask-image.
    White areas = visible, transparent = hidden.
    Irregular edges give the brush/bristle feel.
    Center is solid for text readability.
    fill-rule="evenodd" cuts small bristle notches at top/bottom edges only.
  -->
  <path fill-rule="evenodd" fill="white" d="
    M3 28
    C2 24 2 18 5 13
    C8 9 12 7 18 8
    C23 6 28 9 34 7
    C40 5 46 8 52 6
    C58 9 64 5 72 7
    C78 9 84 5 92 7
    C98 9 104 6 112 8
    C118 5 126 8 132 6
    C140 9 146 5 154 7
    C160 9 168 6 174 8
    C182 5 188 8 196 6
    C204 9 210 5 218 7
    C226 9 232 6 240 8
    C248 5 254 8 262 6
    C270 9 276 5 284 7
    C292 9 298 6 306 8
    C314 5 320 8 328 6
    C336 9 342 5 350 7
    C358 9 364 6 372 8
    C378 6 384 8 390 10
    C394 13 397 18 398 24
    C399 30 398 36 396 41
    C393 46 388 48 382 47
    C376 49 370 46 364 48
    C358 46 352 49 346 47
    C340 49 334 46 328 48
    C322 46 316 49 310 47
    C304 49 298 46 292 48
    C286 46 280 49 274 47
    C268 49 262 46 256 48
    C250 46 244 49 238 47
    C232 49 226 46 220 48
    C214 46 208 49 202 47
    C196 49 190 46 184 48
    C178 46 172 49 166 47
    C160 49 154 46 148 48
    C142 46 136 49 130 47
    C124 49 118 46 112 48
    C106 46 100 49 94 47
    C88 49 82 46 76 48
    C70 46 64 49 58 47
    C52 49 46 46 40 48
    C34 49 28 47 22 48
    C16 47 10 45 7 42
    C4 38 3 34 2 30
    C1 28 2 27 3 28
    Z

    M30 6 L36 6 L36 9 L30 9 Z
    M56 5 L60 5 L60 8 L56 8 Z
    M90 6 L95 6 L95 9 L90 9 Z
    M120 5 L124 5 L124 8 L120 8 Z
    M158 6 L163 6 L163 9 L158 9 Z
    M200 5 L205 5 L205 8 L200 8 Z
    M242 6 L247 6 L247 9 L242 9 Z
    M280 5 L284 5 L284 8 L280 8 Z
    M316 6 L321 6 L321 9 L316 9 Z
    M354 5 L358 5 L358 8 L354 8 Z

    M42 47 L47 47 L47 50 L42 50 Z
    M78 48 L83 48 L83 51 L78 51 Z
    M116 47 L120 47 L120 50 L116 50 Z
    M152 48 L157 48 L157 51 L152 51 Z
    M192 47 L196 47 L196 50 L192 50 Z
    M234 48 L239 48 L239 51 L234 51 Z
    M270 47 L274 47 L274 50 L270 50 Z
    M310 48 L315 48 L315 51 L310 51 Z
    M348 47 L352 47 L352 50 L348 50 Z
    M382 48 L386 48 L386 51 L382 51 Z
  "/>
</svg>
