<svg xmlns="http://www.w3.org/2000/svg" viewBox="0 0 500 60" preserveAspectRatio="none">
  <!--
    Brush stroke mask for CSS mask-image.
    Flat white fill, irregular edges, organic bristle slivers at edges.
    Minimal left/right taper - shape is nearly full height at both ends.
  -->
  <path fill-rule="evenodd" fill="white" d="
    M2 6
    C4 3 10 4 20 5
    C30 3 38 7 48 4
    C56 2 66 6 76 3
    C88 6 96 2 108 5
    C118 8 128 2 140 5
    C150 3 162 7 174 4
    C184 2 196 6 206 3
    C218 7 228 2 240 5
    C252 3 262 7 274 4
    C286 2 296 6 308 4
    C318 7 330 2 342 5
    C354 3 364 7 376 4
    C386 2 398 6 408 4
    C418 7 428 2 440 5
    C450 3 460 6 468 4
    C476 5 484 4 492 6
    C496 8 498 12 498 18
    C499 24 499 36 498 42
    C498 48 496 52 492 54
    C484 57 476 55 468 56
    C458 58 448 55 438 58
    C426 55 416 58 406 56
    C394 58 384 55 372 58
    C362 55 350 58 340 56
    C328 58 318 55 306 58
    C296 55 284 58 274 56
    C262 58 252 55 240 58
    C230 55 218 58 208 56
    C196 58 186 55 174 58
    C164 55 152 58 142 56
    C130 58 120 55 108 58
    C98 55 86 58 76 56
    C64 58 54 55 44 57
    C34 58 24 57 14 56
    C8 55 4 52 2 48
    C1 42 1 36 1 30
    C1 24 1 18 2 12
    C2 9 2 7 2 6
    Z

    M36 3 Q46 0 56 4 L54 6 Q44 2 35 5 Z
    M108 4 Q120 0 132 5 L130 7 Q119 2 107 6 Z
    M196 3 Q208 0 220 5 L218 7 Q207 2 195 5 Z
    M284 4 Q296 0 308 5 L306 7 Q295 2 283 6 Z
    M372 3 Q384 0 396 5 L394 7 Q383 2 371 5 Z
    M448 4 Q458 0 468 5 L466 7 Q457 2 447 6 Z

    M72 57 Q82 60 94 57 L92 55 Q82 58 71 55 Z
    M160 58 Q170 61 182 57 L180 55 Q170 59 159 56 Z
    M250 57 Q260 61 272 57 L270 55 Q260 59 249 55 Z
    M340 58 Q350 61 362 57 L360 55 Q350 59 339 56 Z
    M430 57 Q440 61 452 57 L450 55 Q440 59 429 55 Z
  "/>
</svg>
