<?xml version="1.0" standalone="no"?>
<!DOCTYPE svg PUBLIC "-//W3C//DTD SVG 20010904//EN"
 "http://www.w3.org/TR/2001/REC-SVG-20010904/DTD/svg10.dtd">
<svg version="1.0" xmlns="http://www.w3.org/2000/svg"
 width="1707.000000pt" height="1707.000000pt" viewBox="0 0 1707.000000 1707.000000"
 preserveAspectRatio="xMidYMid meet">
<metadata>
Created by potrace 1.11, written by Peter Selinger 2001-2013
</metadata>
<g transform="translate(0.000000,1707.000000) scale(0.100000,-0.100000)"
fill="#000000" stroke="none">
<path d="M8115 17057 c-38 -9 -84 -32 -315 -154 -188 -100 -281 -121 -540
-123 -151 -2 -216 8 -310 47 -57 24 -174 23 -225 -2 -52 -25 -121 -89 -152
-142 -29 -51 -68 -150 -72 -185 -1 -4 -18 -15 -38 -24 -183 -83 -243 -115
-311 -169 -43 -33 -197 -193 -232 -241 -50 -66 -68 -108 -72 -160 -2 -46 -17
-74 -38 -74 -9 0 -24 -6 -35 -13 -11 -7 -56 -23 -100 -36 -44 -13 -89 -27
-100 -31 -11 -5 -45 -14 -75 -20 -30 -6 -66 -15 -80 -20 -14 -5 -38 -11 -55
-14 -16 -3 -79 -17 -140 -31 -60 -15 -119 -28 -130 -29 -28 -4 -66 -14 -165
-43 -166 -49 -203 -77 -206 -159 -1 -29 -4 -56 -7 -61 -4 -6 -3 -13 0 -17 4
-4 9 -19 11 -34 7 -55 139 -274 222 -366 68 -76 109 -117 168 -166 53 -45 62
-57 58 -79 -5 -32 -23 -85 -43 -130 -8 -18 -16 -40 -17 -47 -1 -7 -5 -16 -8
-19 -11 -11 3 -98 22 -143 22 -49 118 -149 170 -176 17 -9 45 -24 63 -33 17
-10 37 -18 42 -20 6 -1 30 -9 55 -18 51 -19 74 -25 111 -29 15 -2 32 -6 38
-10 6 -4 11 -2 11 4 0 6 5 8 11 4 15 -9 80 -14 369 -28 158 -7 226 -19 285
-48 44 -22 118 -96 143 -143 20 -38 26 -131 13 -181 -10 -36 -84 -161 -103
-175 -16 -11 -18 -53 -3 -76 22 -34 19 -52 -25 -123 -50 -81 -66 -133 -50
-169 13 -32 33 -46 91 -61 107 -29 85 -76 -41 -87 -131 -11 -150 -72 -56 -178
45 -50 45 -68 2 -199 -28 -85 -55 -190 -58 -223 0 -5 -16 -33 -36 -63 -74
-115 -87 -170 -52 -208 16 -17 29 -21 58 -17 41 5 113 34 124 50 4 5 8 6 8 1
0 -5 9 -1 20 9 11 10 20 15 20 11 0 -3 14 1 31 10 l32 16 -7 -33 c-7 -36 -56
-170 -66 -179 -3 -3 -6 -14 -8 -25 -7 -39 -50 -121 -113 -214 -156 -229 -181
-272 -219 -367 -43 -110 -78 -247 -86 -334 -2 -30 -6 -77 -8 -105 -3 -27 -7
-66 -11 -85 -3 -19 -8 -48 -11 -65 -3 -16 -7 -37 -10 -46 -15 -50 -12 -84 7
-105 22 -24 28 -75 16 -149 -4 -22 -9 -56 -12 -75 -4 -33 -27 -145 -39 -199
-17 -75 -87 -247 -106 -261 -4 -3 -14 -18 -23 -35 -24 -48 -132 -155 -241
-240 -131 -102 -191 -151 -194 -157 -2 -5 -10 -8 -17 -8 -7 0 -15 -3 -17 -8
-1 -4 -23 -23 -48 -42 -25 -19 -52 -42 -61 -52 -9 -10 -19 -18 -23 -18 -18 0
-228 -204 -279 -270 -23 -30 -45 -57 -50 -58 -4 -2 -17 -20 -28 -40 -11 -21
-27 -50 -37 -67 -28 -47 -73 -153 -78 -183 -3 -15 -10 -43 -16 -62 -7 -19 -12
-84 -12 -145 -1 -130 16 -198 69 -271 71 -99 110 -161 158 -254 27 -52 56
-102 63 -111 8 -8 14 -20 14 -25 1 -5 23 -25 51 -44 28 -19 60 -43 71 -52 12
-10 24 -18 27 -18 3 0 17 -10 31 -22 14 -13 48 -41 75 -63 27 -22 57 -46 65
-53 47 -42 163 -128 211 -158 63 -38 169 -87 169 -78 0 4 6 2 13 -4 20 -17
153 -40 206 -37 27 2 66 13 87 24 43 22 124 95 124 111 0 5 4 10 8 10 21 0 97
201 101 267 1 6 14 16 30 21 42 15 47 43 17 108 -19 40 -26 73 -26 115 l0 59
83 -5 c45 -3 96 -8 112 -11 17 -4 38 -6 48 -6 9 0 17 -3 17 -8 0 -4 8 -7 18
-5 30 5 130 -54 139 -84 14 -41 9 -111 -16 -223 -18 -81 -21 -103 -26 -188 -2
-47 0 -92 5 -100 6 -10 10 -11 10 -2 0 6 4 12 10 12 9 0 7 -64 -5 -120 -11
-52 -20 -190 -20 -315 0 -128 1 -131 31 -175 20 -30 31 -60 33 -89 4 -65 3
-61 47 -176 4 -11 6 -23 6 -27 -1 -5 2 -8 8 -8 6 0 9 -3 8 -7 -1 -5 3 -18 10
-30 7 -13 10 -23 6 -23 -3 0 -2 -6 3 -12 6 -7 32 -80 59 -162 l49 -148 -29
-23 c-16 -13 -53 -35 -82 -50 -77 -39 -83 -50 -42 -75 18 -11 29 -20 23 -21
-5 0 0 -4 13 -10 18 -7 22 -14 16 -31 -6 -20 -39 -73 -54 -88 -3 -3 -16 -22
-30 -42 -14 -21 -28 -38 -32 -38 -5 0 -8 -4 -8 -10 0 -5 -15 -31 -34 -57 -53
-75 -55 -95 -9 -120 18 -10 27 -8 58 12 40 28 65 34 46 11 -7 -8 -14 -22 -16
-32 -3 -11 -11 -41 -19 -69 -8 -29 -10 -55 -5 -61 5 -6 6 -14 3 -17 -11 -11
21 -44 40 -41 11 1 30 15 43 30 12 15 24 24 24 21 1 -4 2 -11 3 -17 0 -5 9
-19 19 -31 15 -17 17 -27 9 -48 -12 -32 -11 -71 1 -71 5 0 7 -32 5 -70 -3 -66
0 -75 24 -71 12 2 6 -81 -8 -116 -7 -18 -11 -33 -9 -33 2 0 -10 -37 -26 -82
-39 -107 -70 -205 -75 -238 -3 -14 -7 -32 -9 -40 -3 -8 -7 -33 -10 -55 -3 -22
-8 -51 -11 -64 -3 -13 -7 -56 -10 -95 -9 -139 -14 -198 -20 -207 -3 -5 -1 -9
4 -9 5 0 8 -15 5 -33 -2 -17 -5 -44 -7 -59 -2 -16 1 -28 7 -28 6 0 6 -5 0 -12
-5 -7 -8 -22 -8 -33 1 -11 5 -60 9 -108 4 -49 11 -110 16 -135 5 -26 11 -63
14 -82 8 -62 26 -110 42 -110 15 0 57 -43 54 -55 -1 -4 4 -11 12 -16 7 -5 13
-12 14 -16 1 -13 42 -98 51 -107 4 -4 8 -11 8 -14 1 -8 53 -109 85 -167 37
-65 52 -85 66 -85 8 0 15 -4 15 -10 3 -20 5 -25 14 -40 8 -13 50 -126 57 -155
2 -5 26 -55 55 -111 49 -96 69 -148 79 -204 2 -14 6 -36 8 -50 3 -14 5 -25 6
-25 2 0 3 -6 25 -120 9 -49 19 -106 21 -125 9 -77 10 -86 15 -95 13 -23 7
-292 -7 -340 -8 -27 -15 -56 -16 -62 -1 -7 -5 -13 -10 -13 -4 0 -8 -5 -8 -11
0 -19 -59 -70 -104 -90 -43 -19 -72 -25 -156 -33 -103 -11 -147 -17 -190 -26
-25 -5 -57 -12 -73 -14 -15 -3 -55 -10 -90 -17 -34 -6 -71 -13 -82 -15 -11 -1
-20 -3 -20 -4 0 -1 -13 -3 -30 -5 -16 -2 -41 -7 -55 -11 -14 -3 -36 -8 -50
-10 -14 -2 -36 -7 -50 -11 -14 -3 -30 -7 -37 -9 -26 -5 -90 -26 -120 -40 -17
-8 -34 -14 -38 -14 -16 0 -135 -88 -180 -134 -78 -80 -128 -165 -155 -265 -31
-118 -21 -177 26 -146 28 18 49 11 93 -33 40 -39 115 -92 130 -92 6 0 11 -5
11 -11 0 -5 5 -7 10 -4 6 3 10 2 10 -3 0 -12 182 -96 263 -121 38 -11 96 -26
130 -32 76 -14 287 -19 336 -8 20 4 54 10 76 13 22 3 92 17 155 31 63 14 129
27 145 30 17 2 41 7 55 9 30 6 94 16 133 21 15 2 45 7 67 10 22 3 54 8 72 10
18 2 51 7 73 11 22 4 51 8 65 9 14 2 39 5 55 8 99 18 132 21 240 21 66 0 136
-3 155 -6 19 -4 51 -10 70 -13 19 -4 72 -15 117 -26 248 -57 384 -14 499 157
34 51 89 163 86 176 -3 13 58 127 72 135 24 13 25 56 5 114 -17 47 -18 62 -9
114 14 79 15 98 5 175 -9 72 -11 301 -2 340 6 31 25 80 31 80 2 0 23 -19 46
-42 34 -34 43 -39 50 -27 5 8 10 116 11 239 2 239 9 276 60 340 l19 25 20 -25
c11 -14 24 -30 29 -36 5 -6 11 -19 15 -30 9 -30 85 -105 103 -102 15 3 31 -25
122 -212 77 -156 175 -290 212 -290 11 0 39 -25 39 -33 0 -3 18 -35 40 -71 22
-36 40 -67 40 -70 0 -2 8 -21 17 -42 9 -22 17 -41 18 -44 6 -24 17 -121 19
-161 3 -51 21 -78 40 -59 6 6 22 10 36 10 21 0 34 -11 58 -49 18 -27 32 -54
32 -60 0 -6 4 -11 8 -11 5 0 23 -28 41 -63 49 -94 75 -141 82 -147 4 -3 16
-25 28 -49 25 -54 20 -59 -57 -55 -60 3 -84 6 -197 25 -61 10 -197 8 -260 -5
-11 -2 -41 -7 -67 -10 -26 -4 -51 -8 -55 -8 -11 -2 -156 -38 -168 -42 -5 -1
-23 -7 -39 -11 -16 -4 -41 -14 -55 -21 -14 -8 -34 -14 -43 -14 -10 0 -18 -4
-18 -9 0 -5 -10 -13 -22 -17 -65 -20 -248 -190 -248 -230 0 -7 -4 -14 -9 -16
-12 -4 -96 -166 -105 -203 -23 -91 -17 -118 40 -171 40 -39 230 -134 266 -134
8 0 18 -4 24 -9 5 -4 32 -14 59 -21 28 -7 56 -17 63 -23 6 -5 12 -7 12 -4 0 4
19 0 41 -9 23 -8 51 -16 63 -19 12 -2 73 -18 136 -35 126 -33 211 -42 274 -28
23 5 52 11 66 13 14 2 36 6 50 9 175 33 388 47 940 61 107 3 251 7 320 10 115
4 154 6 306 19 94 8 178 35 234 74 90 64 153 158 194 292 35 110 48 140 63
140 27 0 34 90 18 245 -4 39 -8 87 -10 107 -2 21 -6 50 -9 65 -23 116 -26 273
-9 394 29 208 27 195 37 224 19 50 27 67 32 62 3 -3 19 -1 35 5 17 6 28 12 25
15 -2 3 3 21 11 41 9 20 17 65 18 98 4 77 13 119 36 165 30 60 96 269 104 329
6 42 22 125 25 125 1 0 3 14 6 32 2 18 13 74 25 125 11 51 22 98 23 103 2 11
11 42 28 98 12 41 31 48 50 17 18 -29 38 -25 39 8 4 85 3 232 -1 232 -3 0 -7
17 -8 38 -2 20 -5 44 -8 53 -2 10 -7 30 -9 45 -3 16 -12 61 -20 99 -19 88 -23
113 -30 203 -6 71 -5 72 20 82 26 10 26 13 21 68 -4 53 -9 83 -19 122 -13 53
-22 82 -38 135 -11 33 -21 69 -24 80 -2 11 -9 36 -15 55 -6 19 -15 54 -19 78
-9 45 -8 46 42 42 24 -1 27 2 23 22 -4 21 -50 164 -63 198 -4 8 -7 17 -8 20
-1 3 -4 12 -8 20 -64 160 -197 537 -203 575 -2 11 -9 55 -17 98 -16 85 -14
231 2 316 6 30 9 56 7 59 -3 2 -1 15 4 28 5 12 12 42 15 66 9 64 11 74 31 150
3 13 7 30 8 38 3 21 41 134 97 290 26 74 60 180 74 235 29 110 29 110 44 210
6 39 13 86 16 105 8 52 20 163 31 300 9 103 10 411 1 575 -3 66 -7 120 -7 120
-1 0 -3 16 -4 35 -2 19 -7 55 -11 80 -4 25 -9 56 -11 70 -2 14 -9 45 -14 70
-5 25 -12 59 -16 75 -3 17 -7 39 -9 50 -3 11 -9 40 -16 65 -6 25 -12 52 -14
60 -2 8 -4 16 -5 18 -2 1 -3 10 -5 20 -1 9 -4 24 -8 32 -3 8 -15 51 -28 95
-12 44 -30 109 -41 145 -11 36 -21 73 -23 83 -2 10 -13 44 -23 75 -18 53 -65
201 -68 212 0 3 -3 12 -7 20 -8 21 -48 151 -52 170 -2 8 -18 56 -35 105 -17
50 -30 91 -29 93 0 1 -9 34 -21 72 -12 38 -21 71 -20 72 0 2 -9 30 -20 62 -11
33 -18 62 -15 64 3 3 1 10 -4 16 -14 19 -37 91 -85 271 -20 72 -36 130 -36
130 -1 0 -4 14 -6 30 -3 17 -9 44 -14 60 -5 17 -11 41 -14 55 -6 30 -17 81
-20 95 -2 6 -6 21 -9 35 -4 14 -9 36 -12 50 -5 27 -36 167 -54 243 -6 26 -14
64 -17 85 -3 20 -8 46 -12 57 -7 23 -6 17 -17 80 -4 28 -10 57 -12 65 -2 8 -5
26 -8 40 -9 59 -15 97 -19 120 -6 37 -16 110 -22 155 -2 22 -6 54 -9 70 -2 17
-7 59 -10 95 -3 36 -8 85 -10 110 -3 25 -8 113 -11 195 -2 83 -5 155 -5 160
-1 25 11 253 15 280 7 51 18 167 22 235 2 36 4 65 4 65 8 0 12 335 5 410 -14
149 -51 330 -84 400 -129 283 -187 351 -502 589 -101 77 -189 145 -195 150 -7
6 -26 22 -44 36 -18 14 -37 30 -44 35 -6 6 -36 30 -66 55 -30 25 -66 55 -80
67 -14 12 -36 31 -50 43 -128 109 -345 322 -389 380 -14 19 -28 37 -31 40 -4
3 -17 23 -30 45 -13 22 -26 42 -29 45 -15 13 -231 441 -231 456 0 7 -3 14 -7
16 -5 2 -19 26 -32 53 -14 28 -30 56 -35 64 -6 7 -11 20 -12 28 -1 8 -10 26
-20 41 -10 15 -31 51 -47 81 -35 66 -85 120 -197 214 -126 106 -145 125 -229
211 -42 43 -83 86 -92 95 -30 31 -147 176 -223 278 -41 56 -91 117 -109 135
-27 27 -163 150 -186 168 -3 3 -20 22 -38 42 -27 32 -31 43 -28 80 20 208 12
324 -27 380 -10 14 -18 29 -18 33 0 11 -43 44 -57 45 -7 0 -13 4 -13 8 0 11
-66 42 -89 42 -10 0 -21 3 -25 7 -11 11 -107 11 -151 0z"/>
</g>
</svg>
